<svg width="1440" height="1024" viewBox="0 0 1440 1024" fill="none" xmlns="http://www.w3.org/2000/svg">
<g opacity="0.17" filter="url(#filter0_f_1633_3403)">
<path fill-rule="evenodd" clip-rule="evenodd" d="M292.436 0.000148671C404.349 -0.122412 499.077 75.5484 564.971 166C626.988 251.13 664.241 361.107 627.374 459.767C594.139 548.708 487.194 569.036 400.172 607.026C319.696 642.159 236.155 702.547 156.651 665.267C76.6826 627.77 67.2522 525.228 44.014 440.022C18.6917 347.173 -26.6655 250.403 20.6492 166.596C75.6099 69.2464 180.638 0.122584 292.436 0.000148671Z" fill="url(#paint0_linear_1633_3403)" fill-opacity="0.8"/>
</g>
<g opacity="0.13" filter="url(#filter1_f_1633_3403)">
<path fill-rule="evenodd" clip-rule="evenodd" d="M1317.55 864.27C1398.82 857.09 1466.82 717.816 1529.98 769.455C1588.64 817.422 1479.3 900.628 1444.1 967.741C1425.27 1003.66 1410.52 1039.31 1376.72 1061.72C1334.22 1089.89 1288.02 1113.17 1237.77 1104.53C1159.68 1091.12 1058.59 1079.06 1035.85 1003.15C1012.81 926.231 1075.49 838.758 1147.51 803.25C1204.34 775.233 1254.44 869.847 1317.55 864.27Z" fill="#4DAABB"/>
</g>
<g opacity="0.2" filter="url(#filter2_f_1633_3403)">
<g clip-path="url(#paint1_diamond_1633_3403_clip_path)" data-figma-skip-parse="true"><g transform="matrix(-0.06 0.3435 -0.915577 -0.159911 361 476)"><rect x="0" y="0" width="699.762" height="415.803" fill="url(#paint1_diamond_1633_3403)" opacity="1" shape-rendering="crispEdges"/><rect x="0" y="0" width="699.762" height="415.803" transform="scale(1 -1)" fill="url(#paint1_diamond_1633_3403)" opacity="1" shape-rendering="crispEdges"/><rect x="0" y="0" width="699.762" height="415.803" transform="scale(-1 1)" fill="url(#paint1_diamond_1633_3403)" opacity="1" shape-rendering="crispEdges"/><rect x="0" y="0" width="699.762" height="415.803" transform="scale(-1)" fill="url(#paint1_diamond_1633_3403)" opacity="1" shape-rendering="crispEdges"/></g></g><ellipse cx="361.5" cy="525.5" rx="358.5" ry="134.5" transform="rotate(180 361.5 525.5)" data-figma-gradient-fill="{&#34;type&#34;:&#34;GRADIENT_DIAMOND&#34;,&#34;stops&#34;:[{&#34;color&#34;:{&#34;r&#34;:0.72492265701293945,&#34;g&#34;:0.91162079572677612,&#34;b&#34;:0.99163413047790527,&#34;a&#34;:1.0},&#34;position&#34;:0.0},{&#34;color&#34;:{&#34;r&#34;:0.72549021244049072,&#34;g&#34;:0.90980392694473267,&#34;b&#34;:0.99215686321258545,&#34;a&#34;:1.0},&#34;position&#34;:0.45833334326744080},{&#34;color&#34;:{&#34;r&#34;:0.72549021244049072,&#34;g&#34;:0.90980392694473267,&#34;b&#34;:0.99215686321258545,&#34;a&#34;:1.0},&#34;position&#34;:1.0}],&#34;stopsVar&#34;:[{&#34;color&#34;:{&#34;r&#34;:0.72492265701293945,&#34;g&#34;:0.91162079572677612,&#34;b&#34;:0.99163413047790527,&#34;a&#34;:1.0},&#34;position&#34;:0.0},{&#34;color&#34;:{&#34;r&#34;:0.72549021244049072,&#34;g&#34;:0.90980392694473267,&#34;b&#34;:0.99215686321258545,&#34;a&#34;:1.0},&#34;position&#34;:0.45833334326744080},{&#34;color&#34;:{&#34;r&#34;:0.72549021244049072,&#34;g&#34;:0.90980392694473267,&#34;b&#34;:0.99215686321258545,&#34;a&#34;:1.0},&#34;position&#34;:1.0}],&#34;transform&#34;:{&#34;m00&#34;:-119.99997711181641,&#34;m01&#34;:-1831.1545410156250,&#34;m02&#34;:1336.5772705078125,&#34;m10&#34;:687.00006103515625,&#34;m11&#34;:-319.82113647460938,&#34;m12&#34;:292.41055297851562},&#34;opacity&#34;:1.0,&#34;blendMode&#34;:&#34;NORMAL&#34;,&#34;visible&#34;:true}"/>
</g>
<g opacity="0.7" filter="url(#filter3_f_1633_3403)">
<path d="M173 540.5C163.396 510.729 179.731 490.638 200.814 478.214C217.076 468.631 255.396 477.376 273.244 481.962C274.415 481.489 275.661 481.482 277 482C286.694 485.753 283.074 484.488 273.244 481.962C260.862 486.959 256.858 543.913 239.5 580C224.321 611.557 188.93 599.865 173.065 590.04C179.727 594.14 188.948 589.939 173 540.5Z" fill="#F6C478"/>
</g>
<g clip-path="url(#clip0_1633_3403)">
<path d="M720 472.087H719.025V445.368C719.025 443.337 718.626 441.326 717.849 439.449C717.073 437.573 715.935 435.868 714.5 434.432C713.065 432.996 711.362 431.857 709.487 431.08C707.613 430.303 705.604 429.903 703.575 429.903H647.017C644.988 429.903 642.979 430.303 641.104 431.08C639.23 431.857 637.527 432.996 636.092 434.432C634.657 435.868 633.519 437.573 632.743 439.449C631.966 441.326 631.566 443.337 631.566 445.368V591.955C631.566 593.986 631.966 595.997 632.743 597.873C633.519 599.749 634.657 601.454 636.092 602.89C637.527 604.326 639.23 605.465 641.104 606.242C642.979 607.02 644.988 607.42 647.017 607.42H703.575C705.604 607.42 707.613 607.02 709.487 606.242C711.362 605.465 713.065 604.326 714.5 602.89C715.935 601.454 717.073 599.749 717.849 597.873C718.626 595.997 719.025 593.986 719.025 591.955V491.107H720V472.087Z" fill="#231F20"/>
<path d="M715.737 446.276V592.65C715.737 595.714 714.521 598.652 712.357 600.818C710.193 602.984 707.258 604.201 704.197 604.201H647.368C645.853 604.201 644.352 603.902 642.953 603.321C641.553 602.741 640.281 601.89 639.21 600.817C638.139 599.745 637.289 598.471 636.71 597.07C636.13 595.669 635.832 594.167 635.833 592.65V446.276C635.833 443.214 637.048 440.278 639.211 438.113C641.375 435.947 644.309 434.731 647.368 434.731H654.262C653.924 435.564 653.795 436.467 653.888 437.362C653.98 438.256 654.29 439.115 654.791 439.861C655.293 440.607 655.969 441.219 656.762 441.642C657.555 442.065 658.439 442.287 659.338 442.288H691.74C692.639 442.29 693.525 442.069 694.319 441.647C695.113 441.225 695.791 440.613 696.293 439.866C696.795 439.119 697.105 438.259 697.196 437.364C697.287 436.468 697.156 435.564 696.815 434.731H704.197C707.257 434.731 710.192 435.947 712.356 438.112C714.52 440.277 715.736 443.214 715.737 446.276Z" fill="#E4E7EC"/>
<path d="M704.979 509.671H638.916V527.514H704.979V509.671Z" fill="#6A8DC7"/>
<path d="M707.601 524.365H643.635C643.218 524.365 642.819 524.199 642.524 523.903C642.229 523.608 642.063 523.208 642.062 522.791V507.047C642.063 506.63 642.229 506.229 642.524 505.934C642.819 505.639 643.218 505.473 643.635 505.473H707.601C708.018 505.473 708.418 505.639 708.713 505.934C709.007 506.229 709.173 506.63 709.174 507.047V522.791C709.173 523.208 709.007 523.608 708.713 523.903C708.418 524.199 708.018 524.365 707.601 524.365ZM643.635 506.522C643.496 506.522 643.363 506.578 643.265 506.676C643.167 506.774 643.111 506.908 643.111 507.047V522.791C643.111 522.93 643.166 523.063 643.265 523.162C643.363 523.26 643.496 523.315 643.635 523.315H707.601C707.74 523.315 707.873 523.26 707.971 523.162C708.07 523.063 708.125 522.93 708.125 522.791V507.047C708.125 506.908 708.07 506.774 707.971 506.676C707.873 506.578 707.74 506.522 707.601 506.522H643.635Z" fill="#231F20"/>
<path d="M654.646 519.642H646.257V520.692H654.646V519.642Z" fill="#231F20"/>
<path d="M666.18 519.642H657.791V520.692H666.18V519.642Z" fill="#231F20"/>
<path d="M677.715 519.642H669.326V520.692H677.715V519.642Z" fill="#231F20"/>
<path d="M689.25 519.642H680.861V520.692H689.25V519.642Z" fill="#231F20"/>
<path d="M700.784 519.642H692.396V520.692H700.784V519.642Z" fill="#231F20"/>
<path opacity="0.1" d="M715.737 577.767V592.65C715.737 595.714 714.521 598.652 712.357 600.818C710.193 602.984 707.258 604.201 704.197 604.201H647.368C645.853 604.201 644.352 603.902 642.953 603.321C641.553 602.741 640.281 601.89 639.21 600.817C638.139 599.745 637.289 598.471 636.71 597.07C636.13 595.669 635.832 594.167 635.833 592.65V524.187L715.737 577.767Z" fill="#0E1747"/>
<path d="M443.35 564.249H195.353V686H443.35V564.249Z" fill="#E4E7EC"/>
<path opacity="0.1" d="M380.302 686H196.401C196.123 685.999 195.857 685.888 195.661 685.692C195.464 685.495 195.353 685.229 195.353 684.95V565.299C195.353 565.02 195.464 564.754 195.661 564.557C195.857 564.361 196.123 564.25 196.401 564.249H198.729L380.302 686Z" fill="#0E1747"/>
<path d="M694.492 580.518H310.176V581.567H694.492V580.518Z" fill="#231F20"/>
<path d="M431.68 325.266H321.843V323H272.039V325.266H161.749C160.773 325.266 159.807 325.458 158.906 325.832C158.004 326.206 157.185 326.753 156.495 327.444C155.806 328.135 155.258 328.954 154.885 329.857C154.512 330.759 154.319 331.726 154.319 332.702V483.241C154.319 485.213 155.102 487.105 156.495 488.499C157.889 489.894 159.779 490.678 161.749 490.678H431.68C433.65 490.678 435.54 489.894 436.933 488.499C438.327 487.105 439.109 485.213 439.109 483.241V332.702C439.109 331.726 438.917 330.759 438.544 329.857C438.171 328.954 437.623 328.135 436.933 327.444C436.244 326.753 435.424 326.206 434.523 325.832C433.622 325.458 432.656 325.266 431.68 325.266Z" fill="#231F20"/>
<path d="M429.146 338.406H164.282V487.961H429.146V338.406Z" fill="#E4E7EC"/>
<path d="M296.488 334.33C297.988 334.33 299.205 333.112 299.205 331.611C299.205 330.109 297.988 328.892 296.488 328.892C294.988 328.892 293.771 330.109 293.771 331.611C293.771 333.112 294.988 334.33 296.488 334.33Z" fill="#6A8DC7"/>
<path d="M243.065 394.217H236.773C236.356 394.217 235.956 394.051 235.661 393.756C235.367 393.46 235.201 393.06 235.2 392.643V386.345C235.201 385.928 235.367 385.528 235.661 385.233C235.956 384.937 236.356 384.771 236.773 384.771H243.065C243.482 384.771 243.882 384.937 244.177 385.233C244.471 385.528 244.637 385.928 244.638 386.345V392.643C244.637 393.06 244.471 393.46 244.177 393.756C243.882 394.051 243.482 394.217 243.065 394.217ZM236.773 385.821C236.634 385.821 236.501 385.876 236.403 385.974C236.304 386.073 236.249 386.206 236.249 386.345V392.643C236.249 392.782 236.304 392.915 236.403 393.014C236.501 393.112 236.634 393.167 236.773 393.168H243.065C243.204 393.167 243.337 393.112 243.435 393.014C243.534 392.915 243.589 392.782 243.589 392.643V386.345C243.589 386.206 243.534 386.073 243.435 385.974C243.337 385.876 243.204 385.821 243.065 385.821H236.773Z" fill="#231F20"/>
<path d="M355.267 393.168H235.725V394.218H355.267V393.168Z" fill="#231F20"/>
<path d="M352.12 422.031H324.332V430.428H352.12V422.031Z" fill="#6A8DC7"/>
<path d="M354.218 428.329H328.527C328.11 428.329 327.71 428.163 327.415 427.867C327.12 427.572 326.955 427.172 326.954 426.755V420.457C326.955 420.04 327.12 419.64 327.415 419.344C327.71 419.049 328.11 418.883 328.527 418.883H354.218C354.635 418.883 355.035 419.049 355.33 419.344C355.625 419.64 355.791 420.04 355.791 420.457V426.755C355.791 427.172 355.625 427.572 355.33 427.867C355.035 428.163 354.635 428.329 354.218 428.329ZM328.527 419.932C328.388 419.933 328.255 419.988 328.156 420.086C328.058 420.185 328.003 420.318 328.003 420.457V426.755C328.003 426.894 328.058 427.027 328.156 427.126C328.255 427.224 328.388 427.279 328.527 427.279H354.218C354.357 427.279 354.49 427.224 354.589 427.126C354.687 427.027 354.742 426.894 354.742 426.755V420.457C354.742 420.318 354.687 420.185 354.589 420.086C354.49 419.988 354.357 419.933 354.218 419.932H328.527Z" fill="#231F20"/>
<path d="M564.465 431.478H512.034V468.213H564.465V431.478Z" fill="#6A8DC7"/>
<path d="M569.708 465.327H519.375C518.819 465.326 518.285 465.105 517.892 464.711C517.499 464.318 517.278 463.784 517.277 463.227V428.591C517.278 428.035 517.499 427.501 517.892 427.108C518.285 426.714 518.819 426.493 519.375 426.492H569.708C570.264 426.493 570.797 426.714 571.19 427.108C571.583 427.501 571.805 428.035 571.805 428.591V463.227C571.805 463.784 571.583 464.318 571.19 464.711C570.797 465.105 570.264 465.326 569.708 465.327ZM519.375 428.591V463.227H569.71L569.708 428.591H519.375Z" fill="#231F20"/>
<path d="M563.94 427.279H561.843C561.843 422.686 560.02 418.281 556.775 415.033C553.531 411.786 549.13 409.961 544.541 409.961C539.952 409.961 535.551 411.786 532.306 415.033C529.062 418.281 527.239 422.686 527.239 427.279H525.142C525.142 422.129 527.185 417.19 530.824 413.549C534.462 409.908 539.396 407.862 544.541 407.862C549.686 407.862 554.62 409.908 558.258 413.549C561.896 417.19 563.94 422.129 563.94 427.279Z" fill="#231F20"/>
<path d="M549.784 441.711C549.785 440.797 549.548 439.898 549.096 439.105C548.643 438.311 547.992 437.649 547.205 437.185C546.419 436.72 545.525 436.469 544.612 436.457C543.699 436.445 542.799 436.671 542 437.114C541.202 437.557 540.532 438.201 540.059 438.982C539.585 439.763 539.323 440.655 539.3 441.568C539.276 442.482 539.491 443.386 539.923 444.19C540.356 444.995 540.991 445.673 541.765 446.157V451.79C541.765 452.154 541.837 452.516 541.977 452.853C542.116 453.19 542.321 453.496 542.578 453.754C542.836 454.012 543.142 454.217 543.479 454.356C543.816 454.496 544.177 454.568 544.541 454.568C545.277 454.568 545.983 454.275 546.504 453.754C547.024 453.233 547.317 452.526 547.317 451.79V446.157C548.072 445.686 548.694 445.031 549.126 444.254C549.557 443.476 549.784 442.6 549.784 441.711Z" fill="#231F20"/>
<path d="M300.476 618.302H292.087V619.352H300.476V618.302Z" fill="#231F20"/>
<path d="M312.011 618.302H303.622V619.352H312.011V618.302Z" fill="#231F20"/>
<path d="M323.546 618.302H315.157V619.352H323.546V618.302Z" fill="#231F20"/>
<path d="M335.08 618.302H326.691V619.352H335.08V618.302Z" fill="#231F20"/>
<path d="M346.615 618.302H338.227V619.352H346.615V618.302Z" fill="#231F20"/>
<path d="M454.36 677.079H208.461C207.904 677.078 207.371 676.857 206.978 676.463C206.585 676.07 206.364 675.536 206.363 674.98V555.328C206.364 554.771 206.585 554.238 206.978 553.844C207.371 553.45 207.904 553.229 208.461 553.229H454.36C454.916 553.229 455.449 553.45 455.843 553.844C456.236 554.237 456.457 554.771 456.457 555.328V674.98C456.457 675.536 456.236 676.07 455.843 676.463C455.449 676.857 454.916 677.078 454.36 677.079ZM208.461 555.328V674.98H454.362L454.36 555.328H208.461Z" fill="#231F20"/>
<path d="M219.471 573.171C221.208 573.171 222.617 571.761 222.617 570.022C222.617 568.283 221.208 566.873 219.471 566.873C217.734 566.873 216.325 568.283 216.325 570.022C216.325 571.761 217.734 573.171 219.471 573.171Z" fill="#231F20"/>
<path d="M230.481 573.171C232.218 573.171 233.627 571.761 233.627 570.022C233.627 568.283 232.218 566.873 230.481 566.873C228.743 566.873 227.335 568.283 227.335 570.022C227.335 571.761 228.743 573.171 230.481 573.171Z" fill="#231F20"/>
<path d="M241.492 573.171C243.229 573.171 244.637 571.761 244.637 570.022C244.637 568.283 243.229 566.873 241.492 566.873C239.754 566.873 238.346 568.283 238.346 570.022C238.346 571.761 239.754 573.171 241.492 573.171Z" fill="#231F20"/>
<path d="M354.742 625.649H283.961C283.544 625.649 283.144 625.483 282.849 625.188C282.554 624.892 282.388 624.492 282.388 624.075V606.232C282.388 605.815 282.554 605.414 282.849 605.119C283.144 604.824 283.544 604.658 283.961 604.658H354.742C355.159 604.658 355.559 604.824 355.854 605.119C356.149 605.414 356.315 605.815 356.315 606.232V624.075C356.315 624.492 356.149 624.892 355.854 625.188C355.559 625.483 355.159 625.649 354.742 625.649ZM283.961 605.707C283.822 605.707 283.688 605.763 283.59 605.861C283.492 605.96 283.436 606.093 283.436 606.232V624.075C283.436 624.214 283.492 624.347 283.59 624.446C283.688 624.544 283.822 624.6 283.961 624.6H354.742C354.881 624.6 355.014 624.544 355.113 624.446C355.211 624.347 355.266 624.214 355.266 624.075V606.232C355.266 606.093 355.211 605.96 355.113 605.861C355.014 605.763 354.881 605.707 354.742 605.707H283.961Z" fill="#231F20"/>
<path d="M372.568 626.174C377.781 626.174 382.006 621.945 382.006 616.728C382.006 611.511 377.781 607.282 372.568 607.282C367.356 607.282 363.131 611.511 363.131 616.728C363.131 621.945 367.356 626.174 372.568 626.174Z" fill="#6A8DC7"/>
<path d="M375.714 625.125C373.744 625.125 371.818 624.54 370.179 623.444C368.541 622.349 367.264 620.791 366.51 618.969C365.756 617.147 365.559 615.143 365.943 613.208C366.328 611.274 367.277 609.498 368.67 608.103C370.063 606.709 371.838 605.759 373.77 605.374C375.703 604.989 377.706 605.187 379.526 605.942C381.346 606.696 382.902 607.974 383.997 609.614C385.091 611.254 385.676 613.182 385.676 615.154C385.673 617.797 384.622 620.332 382.755 622.201C380.887 624.07 378.355 625.122 375.714 625.125ZM375.714 606.232C373.951 606.232 372.228 606.755 370.762 607.736C369.296 608.716 368.154 610.109 367.479 611.74C366.804 613.37 366.628 615.163 366.972 616.894C367.316 618.625 368.165 620.214 369.411 621.462C370.658 622.71 372.246 623.559 373.975 623.904C375.704 624.248 377.496 624.071 379.125 623.396C380.753 622.721 382.145 621.577 383.125 620.11C384.104 618.643 384.627 616.918 384.627 615.154C384.624 612.788 383.684 610.521 382.013 608.848C380.343 607.176 378.077 606.235 375.714 606.232Z" fill="#231F20"/>
<path d="M375.854 618.878L370.778 613.797L372.261 612.313L375.574 615.628L384.819 602.479L386.534 603.688L375.854 618.878Z" fill="#231F20"/>
<path opacity="0.1" d="M370.424 487.96H164.282V349.736L370.424 487.96Z" fill="#0E1747"/>
<path d="M446.546 485.24H420.697V483.375C420.697 483.327 420.687 483.279 420.669 483.234C420.65 483.189 420.623 483.148 420.589 483.114C420.554 483.08 420.514 483.053 420.469 483.034C420.424 483.015 420.376 483.006 420.328 483.006H411.465C411.416 483.006 411.368 483.015 411.324 483.034C411.279 483.053 411.238 483.08 411.204 483.114C411.169 483.148 411.142 483.189 411.124 483.234C411.105 483.279 411.096 483.327 411.096 483.375V485.24H405.556V483.375C405.556 483.327 405.547 483.279 405.528 483.234C405.51 483.189 405.483 483.148 405.448 483.114C405.414 483.08 405.373 483.053 405.328 483.034C405.284 483.015 405.236 483.006 405.187 483.006H396.324C396.276 483.006 396.228 483.015 396.183 483.034C396.138 483.053 396.098 483.08 396.063 483.114C396.029 483.148 396.002 483.189 395.983 483.234C395.965 483.279 395.955 483.327 395.955 483.375V485.24H390.416V483.375C390.416 483.327 390.406 483.279 390.388 483.234C390.369 483.189 390.342 483.148 390.308 483.114C390.274 483.08 390.233 483.053 390.188 483.034C390.143 483.015 390.095 483.006 390.047 483.006H381.184C381.136 483.006 381.088 483.015 381.043 483.034C380.998 483.053 380.957 483.08 380.923 483.114C380.889 483.148 380.861 483.189 380.843 483.234C380.824 483.279 380.815 483.327 380.815 483.375V485.24H375.276V483.375C375.276 483.327 375.266 483.279 375.248 483.234C375.229 483.189 375.202 483.148 375.168 483.114C375.133 483.08 375.092 483.053 375.048 483.034C375.003 483.015 374.955 483.006 374.906 483.006H366.044C365.995 483.006 365.947 483.015 365.902 483.034C365.858 483.053 365.817 483.08 365.783 483.114C365.748 483.148 365.721 483.189 365.703 483.234C365.684 483.279 365.674 483.327 365.674 483.375V485.24H360.135V483.375C360.135 483.327 360.126 483.279 360.107 483.234C360.089 483.189 360.061 483.148 360.027 483.114C359.993 483.08 359.952 483.053 359.907 483.034C359.863 483.015 359.814 483.006 359.766 483.006H350.903C350.855 483.006 350.807 483.015 350.762 483.034C350.717 483.053 350.676 483.08 350.642 483.114C350.608 483.148 350.581 483.189 350.562 483.234C350.544 483.279 350.534 483.327 350.534 483.375V485.24H344.995V483.375C344.995 483.327 344.985 483.279 344.967 483.234C344.948 483.189 344.921 483.148 344.887 483.114C344.852 483.08 344.812 483.053 344.767 483.034C344.722 483.015 344.674 483.006 344.626 483.006H335.763C335.714 483.006 335.666 483.015 335.622 483.034C335.577 483.053 335.536 483.08 335.502 483.114C335.468 483.148 335.44 483.189 335.422 483.234C335.403 483.279 335.394 483.327 335.394 483.375V485.24H329.855V483.375C329.855 483.327 329.845 483.279 329.826 483.234C329.808 483.189 329.781 483.148 329.746 483.114C329.712 483.08 329.671 483.053 329.627 483.034C329.582 483.015 329.534 483.006 329.485 483.006H260.061C260.013 483.006 259.965 483.015 259.92 483.034C259.875 483.053 259.834 483.08 259.8 483.114C259.766 483.148 259.738 483.189 259.72 483.234C259.701 483.279 259.692 483.327 259.692 483.375V485.24H254.153V483.375C254.153 483.327 254.143 483.279 254.124 483.234C254.106 483.189 254.079 483.148 254.044 483.114C254.01 483.08 253.969 483.053 253.925 483.034C253.88 483.015 253.832 483.006 253.783 483.006H244.921C244.872 483.006 244.824 483.015 244.779 483.034C244.735 483.053 244.694 483.08 244.66 483.114C244.625 483.148 244.598 483.189 244.579 483.234C244.561 483.279 244.551 483.327 244.551 483.375V485.24H239.012V483.375C239.012 483.327 239.003 483.279 238.984 483.234C238.966 483.189 238.938 483.148 238.904 483.114C238.87 483.08 238.829 483.053 238.784 483.034C238.739 483.015 238.691 483.006 238.643 483.006H229.78C229.732 483.006 229.684 483.015 229.639 483.034C229.594 483.053 229.553 483.08 229.519 483.114C229.485 483.148 229.458 483.189 229.439 483.234C229.421 483.279 229.411 483.327 229.411 483.375V485.24H223.872V483.375C223.872 483.327 223.862 483.279 223.844 483.234C223.825 483.189 223.798 483.148 223.764 483.114C223.729 483.08 223.689 483.053 223.644 483.034C223.599 483.015 223.551 483.006 223.503 483.006H214.64C214.591 483.006 214.543 483.015 214.499 483.034C214.454 483.053 214.413 483.08 214.379 483.114C214.344 483.148 214.317 483.189 214.299 483.234C214.28 483.279 214.271 483.327 214.271 483.375V485.24H208.731V483.375C208.731 483.327 208.722 483.279 208.703 483.234C208.685 483.189 208.658 483.148 208.623 483.114C208.589 483.08 208.548 483.053 208.503 483.034C208.459 483.015 208.411 483.006 208.362 483.006H199.499C199.451 483.006 199.403 483.015 199.358 483.034C199.313 483.053 199.273 483.08 199.238 483.114C199.204 483.148 199.177 483.189 199.158 483.234C199.14 483.279 199.13 483.327 199.13 483.375V485.24H193.591V483.375C193.591 483.327 193.582 483.279 193.563 483.234C193.544 483.189 193.517 483.148 193.483 483.114C193.449 483.08 193.408 483.053 193.363 483.034C193.318 483.015 193.27 483.006 193.222 483.006H184.359C184.311 483.006 184.263 483.015 184.218 483.034C184.173 483.053 184.132 483.08 184.098 483.114C184.064 483.148 184.036 483.189 184.018 483.234C183.999 483.279 183.99 483.327 183.99 483.375V485.24H178.451V483.375C178.451 483.327 178.441 483.279 178.423 483.234C178.404 483.189 178.377 483.148 178.342 483.114C178.308 483.08 178.267 483.053 178.223 483.034C178.178 483.015 178.13 483.006 178.081 483.006H169.219C169.17 483.006 169.122 483.015 169.077 483.034C169.033 483.053 168.992 483.08 168.958 483.114C168.923 483.148 168.896 483.189 168.878 483.234C168.859 483.279 168.849 483.327 168.849 483.375V485.24H151.863C150.699 485.24 149.546 485.469 148.471 485.915C147.396 486.361 146.419 487.014 145.596 487.838C144.773 488.662 144.12 489.639 143.675 490.716C143.229 491.792 143 492.946 143 494.11V498.122C143 500.474 143.934 502.731 145.596 504.394C147.258 506.058 149.512 506.992 151.863 506.992H446.546C447.71 506.992 448.863 506.763 449.938 506.317C451.013 505.871 451.99 505.218 452.813 504.394C453.636 503.57 454.289 502.593 454.734 501.516C455.18 500.44 455.409 499.287 455.409 498.122V494.11C455.409 492.946 455.18 491.792 454.734 490.716C454.289 489.639 453.636 488.662 452.813 487.838C451.99 487.014 451.013 486.361 449.938 485.915C448.863 485.469 447.71 485.24 446.546 485.24Z" fill="#231F20"/>
<path d="M365.753 437.25H227.336C226.919 437.25 226.519 437.084 226.224 436.788C225.929 436.493 225.763 436.093 225.763 435.676V377.949C225.763 377.531 225.929 377.131 226.224 376.836C226.519 376.541 226.919 376.375 227.336 376.375H365.753C366.17 376.375 366.569 376.541 366.864 376.836C367.159 377.131 367.325 377.531 367.326 377.949V435.676C367.325 436.093 367.159 436.493 366.864 436.788C366.569 437.084 366.17 437.25 365.753 437.25ZM227.336 377.424C227.197 377.424 227.063 377.48 226.965 377.578C226.867 377.676 226.811 377.81 226.811 377.949V435.676C226.811 435.815 226.867 435.948 226.965 436.047C227.063 436.145 227.197 436.2 227.336 436.2H365.753C365.892 436.2 366.025 436.145 366.123 436.047C366.221 435.948 366.277 435.815 366.277 435.676V377.949C366.277 377.81 366.221 377.676 366.123 377.578C366.025 377.48 365.892 377.424 365.753 377.424H227.336Z" fill="#231F20"/>
<path d="M243.065 409.961H236.773C236.356 409.96 235.956 409.794 235.661 409.499C235.367 409.204 235.201 408.804 235.2 408.386V402.089C235.201 401.672 235.367 401.271 235.661 400.976C235.956 400.681 236.356 400.515 236.773 400.515H243.065C243.482 400.515 243.882 400.681 244.177 400.976C244.471 401.271 244.637 401.672 244.638 402.089V408.386C244.637 408.804 244.471 409.204 244.177 409.499C243.882 409.794 243.482 409.96 243.065 409.961ZM236.773 401.564C236.634 401.564 236.501 401.62 236.403 401.718C236.304 401.817 236.249 401.95 236.249 402.089V408.386C236.249 408.526 236.304 408.659 236.403 408.757C236.501 408.856 236.634 408.911 236.773 408.911H243.065C243.204 408.911 243.337 408.856 243.435 408.757C243.534 408.659 243.589 408.526 243.589 408.386V402.089C243.589 401.95 243.534 401.817 243.435 401.718C243.337 401.62 243.204 401.564 243.065 401.564H236.773Z" fill="#231F20"/>
<path d="M355.267 408.912H235.725V409.961H355.267V408.912Z" fill="#231F20"/>
<path d="M666.18 464.539H281.863V465.589H666.18V464.539Z" fill="#231F20"/>
<path d="M281.864 471.886C285.918 471.886 289.204 468.597 289.204 464.539C289.204 460.482 285.918 457.192 281.864 457.192C277.81 457.192 274.523 460.482 274.523 464.539C274.523 468.597 277.81 471.886 281.864 471.886Z" fill="#231F20"/>
<path d="M666.18 471.361C669.366 471.361 671.948 468.777 671.948 465.589C671.948 462.4 669.366 459.816 666.18 459.816C662.995 459.816 660.413 462.4 660.413 465.589C660.413 468.777 662.995 471.361 666.18 471.361Z" fill="#231F20"/>
<path d="M694.493 587.34C697.678 587.34 700.26 584.755 700.26 581.567C700.26 578.379 697.678 575.794 694.493 575.794C691.308 575.794 688.726 578.379 688.726 581.567C688.726 584.755 691.308 587.34 694.493 587.34Z" fill="#231F20"/>
<path d="M311.749 587.34C314.934 587.34 317.516 584.755 317.516 581.567C317.516 578.379 314.934 575.794 311.749 575.794C308.564 575.794 305.981 578.379 305.981 581.567C305.981 584.755 308.564 587.34 311.749 587.34Z" fill="#231F20"/>
</g>
<defs>
<filter id="filter0_f_1633_3403" x="-400" y="-400" width="1442" height="1477" filterUnits="userSpaceOnUse" color-interpolation-filters="sRGB">
<feFlood flood-opacity="0" result="BackgroundImageFix"/>
<feBlend mode="normal" in="SourceGraphic" in2="BackgroundImageFix" result="shape"/>
<feGaussianBlur stdDeviation="200" result="effect1_foregroundBlur_1633_3403"/>
</filter>
<filter id="filter1_f_1633_3403" x="531" y="258" width="1515.96" height="1348.36" filterUnits="userSpaceOnUse" color-interpolation-filters="sRGB">
<feFlood flood-opacity="0" result="BackgroundImageFix"/>
<feBlend mode="normal" in="SourceGraphic" in2="BackgroundImageFix" result="shape"/>
<feGaussianBlur stdDeviation="250" result="effect1_foregroundBlur_1633_3403"/>
</filter>
<filter id="filter2_f_1633_3403" x="-197" y="191" width="1117" height="669" filterUnits="userSpaceOnUse" color-interpolation-filters="sRGB">
<feFlood flood-opacity="0" result="BackgroundImageFix"/>
<feBlend mode="normal" in="SourceGraphic" in2="BackgroundImageFix" result="shape"/>
<feGaussianBlur stdDeviation="100" result="effect1_foregroundBlur_1633_3403"/>
</filter>
<clipPath id="paint1_diamond_1633_3403_clip_path"><ellipse cx="361.5" cy="525.5" rx="358.5" ry="134.5" transform="rotate(180 361.5 525.5)"/></clipPath><filter id="filter3_f_1633_3403" x="-9.81934" y="293.906" width="472.519" height="486.638" filterUnits="userSpaceOnUse" color-interpolation-filters="sRGB">
<feFlood flood-opacity="0" result="BackgroundImageFix"/>
<feBlend mode="normal" in="SourceGraphic" in2="BackgroundImageFix" result="shape"/>
<feGaussianBlur stdDeviation="90" result="effect1_foregroundBlur_1633_3403"/>
</filter>
<linearGradient id="paint0_linear_1633_3403" x1="65.3419" y1="705.335" x2="439.376" y2="-93.2369" gradientUnits="userSpaceOnUse">
<stop stop-color="#0074B0"/>
<stop offset="0.5" stop-color="#21B5BA"/>
<stop offset="1" stop-color="#8DC154"/>
</linearGradient>
<linearGradient id="paint1_diamond_1633_3403" x1="0" y1="0" x2="500" y2="500" gradientUnits="userSpaceOnUse">
<stop stop-color="#B9E8FD"/>
<stop offset="0.458333" stop-color="#B9E8FD"/>
<stop offset="1" stop-color="#B9E8FD"/>
</linearGradient>
<clipPath id="clip0_1633_3403">
<rect width="577" height="363" fill="white" transform="translate(143 323)"/>
</clipPath>
</defs>
</svg>
