<svg width="48" height="48" viewBox="0 0 48 48" fill="none" xmlns="http://www.w3.org/2000/svg">
<g clip-path="url(#clip0_511_9768)">
<path d="M24 48C37.2548 48 48 37.2548 48 24C48 10.7452 37.2548 0 24 0C10.7452 0 0 10.7452 0 24C0 37.2548 10.7452 48 24 48Z" fill="#DAF6E2"/>
<path fill-rule="evenodd" clip-rule="evenodd" d="M34.0263 35.7822C34.0324 35.973 34.0001 36.1631 33.9313 36.3412C33.8625 36.5193 33.7585 36.6818 33.6257 36.8189C33.4929 36.9561 33.3338 37.0651 33.158 37.1396C32.9822 37.2141 32.7932 37.2524 32.6023 37.2524C32.4114 37.2524 32.2224 37.2141 32.0466 37.1396C31.8708 37.0651 31.7117 36.9561 31.5789 36.8189C31.4461 36.6818 31.3422 36.5193 31.2733 36.3412C31.2045 36.1631 31.1722 35.973 31.1783 35.7822C31.2132 34.8255 31.0549 33.8716 30.7128 32.9775C30.3707 32.0833 29.852 31.2673 29.1875 30.5781C28.523 29.889 27.7264 29.3408 26.8453 28.9664C25.9642 28.592 25.0167 28.3991 24.0594 28.3991C23.1021 28.3991 22.1546 28.592 21.2735 28.9664C20.3924 29.3408 19.5958 29.889 18.9313 30.5781C18.2668 31.2673 17.748 32.0833 17.406 32.9775C17.0639 33.8716 16.9056 34.8255 16.9405 35.7822C16.9466 35.973 16.9143 36.1631 16.8454 36.3412C16.7766 36.5193 16.6727 36.6818 16.5399 36.8189C16.4071 36.9561 16.248 37.0651 16.0722 37.1396C15.8964 37.2141 15.7074 37.2524 15.5165 37.2524C15.3256 37.2524 15.1366 37.2141 14.9608 37.1396C14.785 37.0651 14.6259 36.9561 14.4931 36.8189C14.3603 36.6818 14.2563 36.5193 14.1875 36.3412C14.1187 36.1631 14.0864 35.973 14.0925 35.7822C14.0439 34.443 14.2658 33.1077 14.7448 31.8562C15.2238 30.6046 15.9501 29.4624 16.8804 28.4978C17.8107 27.5332 18.9258 26.766 20.1592 26.2419C21.3926 25.7179 22.7189 25.4478 24.059 25.4478C25.3991 25.4478 26.7255 25.7179 27.9589 26.2419C29.1923 26.766 30.3074 27.5332 31.2377 28.4978C32.1679 29.4624 32.8943 30.6046 33.3733 31.8562C33.8523 33.1077 34.0741 34.443 34.0256 35.7822H34.0263ZM24.0568 13.6338C24.6457 13.6124 25.2274 13.7674 25.7275 14.079C26.2276 14.3906 26.6231 14.8445 26.8633 15.3825C27.1035 15.9205 27.1775 16.518 27.0756 17.0983C26.9738 17.6787 26.7009 18.2153 26.2918 18.6394C25.8828 19.0635 25.3563 19.3556 24.7801 19.4783C24.2038 19.6011 23.604 19.5487 23.0577 19.3281C22.5113 19.1074 22.0434 18.7286 21.714 18.2401C21.3846 17.7516 21.2087 17.1758 21.2088 16.5866C21.196 15.8176 21.4886 15.075 22.0225 14.5215C22.5564 13.968 23.288 13.6487 24.0568 13.6338ZM24.0568 22.4935C25.234 22.5362 26.3971 22.2262 27.3969 21.6033C28.3966 20.9803 29.1874 20.0728 29.6676 18.9972C30.1479 17.9216 30.2959 16.727 30.0924 15.5668C29.8889 14.4065 29.3434 13.3336 28.5258 12.4856C27.7082 11.6376 26.6558 11.0533 25.5038 10.8077C24.3517 10.562 23.1525 10.6663 22.0601 11.107C20.9678 11.5477 20.032 12.3049 19.373 13.2813C18.714 14.2576 18.3618 15.4086 18.3616 16.5866C18.3355 18.1245 18.9204 19.6101 19.9881 20.7174C21.0557 21.8247 22.5189 22.4635 24.0568 22.4935Z" fill="#006945"/>
</g>
<defs>
<clipPath id="clip0_511_9768">
<rect width="48" height="48" fill="white"/>
</clipPath>
</defs>
</svg>
