<svg width="40" height="40" viewBox="0 0 40 40" fill="none" xmlns="http://www.w3.org/2000/svg">
<g clip-path="url(#clip0_2141_711)">
<path d="M22.4701 30.1938H16.7354V36.6167H22.4701V30.1938Z" fill="#FDCC9B"/>
<path d="M16.7354 30.9504C16.7354 30.9504 19.1475 32.4866 22.4699 32.1307V30.1938H16.7354V30.9504Z" fill="#FCBC85"/>
<path d="M8.46617 23.4269C10.0116 23.4269 11.2644 21.9976 11.2644 20.2345C11.2644 18.4713 10.0116 17.042 8.46617 17.042C6.92076 17.042 5.66797 18.4713 5.66797 20.2345C5.66797 21.9976 6.92076 23.4269 8.46617 23.4269Z" fill="#FCBC85"/>
<path d="M30.7396 23.4269C32.285 23.4269 33.5378 21.9976 33.5378 20.2345C33.5378 18.4713 32.285 17.042 30.7396 17.042C29.1942 17.042 27.9414 18.4713 27.9414 20.2345C27.9414 21.9976 29.1942 23.4269 30.7396 23.4269Z" fill="#FCBC85"/>
<path d="M30.2617 14.3101C30.2617 9.60777 26.8208 6.16675 19.1366 6.16675C11.4519 6.16675 8.0113 9.60758 8.0113 14.3101C8.0113 19.0126 7.2085 31.3995 19.1366 31.3995C31.0645 31.3993 30.2617 19.0126 30.2617 14.3101Z" fill="#FDCC9B"/>
<path d="M14.1838 20.7889C14.8489 20.7889 15.3881 20.1984 15.3881 19.4699C15.3881 18.7414 14.8489 18.1509 14.1838 18.1509C13.5187 18.1509 12.9795 18.7414 12.9795 19.4699C12.9795 20.1984 13.5187 20.7889 14.1838 20.7889Z" fill="#3B2519"/>
<path d="M13.659 19.2476C13.8579 19.2476 14.0191 19.0864 14.0191 18.8875C14.0191 18.6886 13.8579 18.5273 13.659 18.5273C13.4601 18.5273 13.2988 18.6886 13.2988 18.8875C13.2988 19.0864 13.4601 19.2476 13.659 19.2476Z" fill="white"/>
<path d="M12.2572 16.2012C12.8266 16.486 13.741 15.2335 15.8342 16.3231C16.2158 16.5217 16.4434 14.6243 14.1999 14.6243C12.2572 14.6243 11.913 16.0291 12.2572 16.2012Z" fill="#D96E27"/>
<path d="M25.1701 20.7889C25.8352 20.7889 26.3744 20.1984 26.3744 19.4699C26.3744 18.7414 25.8352 18.1509 25.1701 18.1509C24.505 18.1509 23.9658 18.7414 23.9658 19.4699C23.9658 20.1984 24.505 20.7889 25.1701 20.7889Z" fill="#3B2519"/>
<path d="M24.6453 19.2476C24.8442 19.2476 25.0054 19.0864 25.0054 18.8875C25.0054 18.6886 24.8442 18.5273 24.6453 18.5273C24.4464 18.5273 24.2852 18.6886 24.2852 18.8875C24.2852 19.0864 24.4464 19.2476 24.6453 19.2476Z" fill="white"/>
<path d="M26.9478 16.2012C26.3783 16.486 25.4638 15.2335 23.3708 16.3231C22.9892 16.5217 22.7615 14.6243 25.0051 14.6243C26.9478 14.6243 27.2918 16.0291 26.9478 16.2012Z" fill="#D96E27"/>
<path d="M19.6031 24.1093C18.4131 24.1093 17.6963 23.2204 17.6963 23.6504C17.6963 24.0806 18.0404 24.8978 19.6031 24.8978C21.1658 24.8978 21.5097 24.0806 21.5097 23.6504C21.5099 23.2204 20.793 24.1093 19.6031 24.1093Z" fill="#FCBC85"/>
<path d="M19.603 28.064C19.1913 28.064 18.9434 27.7566 18.9434 27.9054C18.9434 28.0543 19.0622 28.3368 19.603 28.3368C20.1434 28.3368 20.2624 28.0543 20.2624 27.9054C20.2624 27.7566 20.0146 28.064 19.603 28.064Z" fill="#FCBC85"/>
<path d="M19.6026 26.9683C17.7163 26.9683 16.5801 26.2002 16.5801 26.3949C16.5801 26.5896 17.1256 27.3555 19.6026 27.3555C22.0795 27.3555 22.625 26.5896 22.625 26.3949C22.6252 26.2002 21.4888 26.9683 19.6026 26.9683Z" fill="#F7945E"/>
<path d="M19.6028 32.7744V40.0002H5.66797C5.66797 37.0754 13.0079 32.7744 19.6028 32.7744Z" fill="#7CD6B5"/>
<path d="M19.6025 32.7744V40.0002H33.5373C33.5373 37.0754 26.1974 32.7744 19.6025 32.7744Z" fill="#7CD6B5"/>
<path d="M16.7354 33.0246C16.7354 33.0246 17.5741 34.0648 19.6026 34.0648C21.6312 34.0648 22.4699 33.0246 22.4699 33.0246C22.4699 33.0246 19.4953 31.9415 16.7354 33.0246Z" fill="#FDCC9B"/>
<path d="M8.46606 19.47C9.454 19.47 10.3126 16.5167 10.2264 14.6244C10.1405 12.7318 11.3277 11.3556 13.6588 10.3234C13.6588 10.3234 20.3366 12.2158 25.0053 12.2158C31.1295 12.2158 29.5049 19.4129 30.6183 19.4702C31.7317 19.5276 32.936 11.2696 31.6457 6.53859C31.6457 6.53859 33.6243 5.50616 34.2263 4.21602C34.8286 2.92569 32.6718 4.12999 30.7395 4.21602C30.7395 4.21602 34.1739 1.97949 34.3291 0.431246C34.4844 -1.117 28.0201 2.06553 20.823 1.2914C13.626 0.516891 7.68062 4.53363 7.38798 10.6673C7.12988 16.0747 7.56591 19.47 8.46606 19.47Z" fill="#D96E27"/>
<path d="M16.7356 32.3155L19.6028 34.0645L16.5805 37.0754L14.335 33.5809C14.335 33.5809 15.8038 32.1357 16.7356 32.3155Z" fill="#7CD6B5"/>
<path d="M22.4698 32.3155L19.6025 34.0645L22.6251 37.0754L24.8706 33.5809C24.8706 33.5809 23.4018 32.1357 22.4698 32.3155Z" fill="#7CD6B5"/>
<path d="M19.6025 34.0649V40.0002L20.0552 34.5156L19.6025 34.0649Z" fill="#03A67A"/>
<path d="M18.9434 36.1867C19.1889 36.1867 19.3879 35.9877 19.3879 35.7423C19.3879 35.4968 19.1889 35.2979 18.9434 35.2979C18.698 35.2979 18.499 35.4968 18.499 35.7423C18.499 35.9877 18.698 36.1867 18.9434 36.1867Z" fill="#03A67A"/>
<path d="M18.9434 39.7133C19.1889 39.7133 19.3879 39.5143 19.3879 39.2689C19.3879 39.0234 19.1889 38.8245 18.9434 38.8245C18.698 38.8245 18.499 39.0234 18.499 39.2689C18.499 39.5143 18.698 39.7133 18.9434 39.7133Z" fill="#03A67A"/>
</g>
<defs>
<clipPath id="clip0_2141_711">
<rect width="40" height="40" rx="20" fill="white"/>
</clipPath>
</defs>
</svg>
