<svg width="40" height="41" viewBox="0 0 40 41" fill="none" xmlns="http://www.w3.org/2000/svg">
<g clip-path="url(#clip0_2141_670)">
<path d="M32.7912 38.4909L31.9991 32.5506C31.83 31.2824 30.9725 30.2119 29.7718 29.7701L25.0811 28.0442C24.5179 27.8564 24.138 27.3293 24.138 26.7356V24.5113L27.1087 23.2735C28.6508 22.6311 29.6552 21.1244 29.6552 19.4539V18.7643C30.7979 18.7643 31.7242 17.838 31.7242 16.6953C31.7242 15.5526 30.7979 14.6263 29.6552 14.6263V13.247C29.6552 11.3426 28.1113 8.41943 26.2069 8.41943H13.7931C11.8887 8.41943 10.3449 11.3426 10.3449 13.247V14.6263C9.20219 14.6263 8.2759 15.5526 8.2759 16.6953C8.2759 17.838 9.20219 18.7643 10.3449 18.7643V19.4539C10.3449 21.1243 11.3493 22.631 12.8912 23.2736L15.8621 24.5114V26.7356C15.8621 27.3293 15.4822 27.8564 14.919 28.0442L10.2283 29.7701C9.02754 30.2119 8.17012 31.2824 8.00099 32.5506L7.20892 38.4909C7.04357 39.7312 8.0084 40.8332 9.25969 40.8332H30.7404C31.9917 40.8332 32.9566 39.7312 32.7912 38.4909Z" fill="#F6B47B"/>
<path d="M30.3441 18.0747H28.9648C28.9648 18.0747 28.3079 19.893 28.2751 22.2126C28.2568 23.5117 28.5934 24.9682 28.9648 26.3506H30.3441C30.7155 24.9682 31.0521 23.5117 31.0338 22.2126C31.001 19.893 30.3441 18.0747 30.3441 18.0747Z" fill="#6E4439"/>
<path d="M11.0345 18.0747H9.65522C9.65522 18.0747 8.99832 19.893 8.96556 22.2126C8.9472 23.5117 9.28384 24.9682 9.65522 26.3506H11.0345C11.4059 24.9682 11.7425 23.5117 11.7242 22.2126C11.6914 19.893 11.0345 18.0747 11.0345 18.0747Z" fill="#5E342E"/>
<path d="M10.0169 13.6187H6.20793C5.72 13.6187 5.38638 14.1114 5.56759 14.5644L6.26785 16.315C6.4256 16.7093 6.89879 16.8688 7.26302 16.6503L10.0169 14.998V13.6187Z" fill="#7CD6B5"/>
<path d="M10.0169 13.6187H6.20793C5.72 13.6187 5.38638 13.1259 5.56759 12.6729L6.26785 10.9223C6.4256 10.528 6.89879 10.3685 7.26302 10.5871L10.0169 12.2394V13.6187Z" fill="#7CD6B5"/>
<path d="M29.9834 13.6187H33.7924C34.2803 13.6187 34.6139 14.1114 34.4327 14.5644L33.7325 16.315C33.5747 16.7093 33.1015 16.8688 32.7373 16.6503L29.9834 14.998V13.6187Z" fill="#7CD6B5"/>
<path d="M29.9834 13.6187H33.7924C34.2803 13.6187 34.6139 13.1259 34.4327 12.6729L33.7325 10.9223C33.5747 10.528 33.1015 10.3685 32.7373 10.5871L29.9834 12.2394V13.6187Z" fill="#7CD6B5"/>
<path d="M24.1379 24.5115L15.862 22.6724V26.7357C15.862 27.2322 15.5874 27.6694 15.1709 27.9132C20.9549 28.9256 24.1379 24.5115 24.1379 24.5115Z" fill="#E2A071"/>
<path d="M10.3453 14.6263C9.20266 14.6263 8.27637 15.5527 8.27637 16.6953C8.27637 17.838 9.20266 18.7643 10.3453 18.7643V19.4539C10.3453 21.1244 11.3497 22.6311 12.8917 23.2736L17.3479 25.1304C18.1883 25.4806 19.0899 25.6609 20.0004 25.6609C20.9109 25.6609 21.8124 25.4806 22.6529 25.1304L27.1093 23.2736C28.6513 22.6311 29.6557 21.1244 29.6557 19.4539V18.7643C30.7983 18.7643 31.7246 17.838 31.7246 16.6953C31.7246 15.5526 30.7983 14.6263 29.6557 14.6263V12.385C29.6557 10.1949 27.8802 8.41943 25.6902 8.41943H14.3108C12.1208 8.41943 10.3453 10.1949 10.3453 12.385V14.6263Z" fill="#FDC88E"/>
<path d="M15.1731 17.3849C14.7937 17.3849 14.4834 17.0745 14.4834 16.6952V16.0056C14.4834 15.6263 14.7937 15.3159 15.1731 15.3159C15.5524 15.3159 15.8627 15.6263 15.8627 16.0056V16.6952C15.8627 17.0745 15.5524 17.3849 15.1731 17.3849Z" fill="#623F33"/>
<path d="M24.8283 17.3849C24.449 17.3849 24.1387 17.0745 24.1387 16.6952V16.0056C24.1387 15.6263 24.449 15.3159 24.8283 15.3159C25.2076 15.3159 25.518 15.6263 25.518 16.0056V16.6952C25.518 17.0745 25.2076 17.3849 24.8283 17.3849Z" fill="#623F33"/>
<path d="M20.0001 22.2315C18.774 22.2315 17.6271 21.9298 16.8536 21.4035C16.5388 21.1894 16.4569 20.7603 16.6714 20.4455C16.8852 20.131 17.3146 20.0491 17.6294 20.2633C18.1716 20.632 19.0579 20.8523 20.0001 20.8523C20.9424 20.8523 21.8287 20.632 22.3708 20.2633C22.6863 20.0485 23.1147 20.1307 23.3288 20.4455C23.5433 20.7603 23.4615 21.1894 23.1467 21.4035C22.3732 21.9298 21.2263 22.2315 20.0001 22.2315Z" fill="#E2A071"/>
<path d="M10.3453 14.6264C9.20266 14.6264 8.27637 15.5527 8.27637 16.6953C8.27637 17.838 9.20266 18.7643 10.3453 18.7643V19.454C10.3453 21.1245 11.3497 22.6311 12.8917 23.2736L17.3477 25.1303C17.5658 25.2212 17.7884 25.2995 18.0139 25.3673C16.0446 23.9267 14.7337 22.6673 13.9656 21.8439C13.4068 21.2447 13.104 20.4541 13.104 19.6348V15.7804C15.0781 15.0914 20.6193 12.828 20.6902 9.10914L19.8281 8.24707C19.8281 8.24707 19.4546 13.1896 10.3453 14.6264Z" fill="#F6B47B"/>
<path d="M27.9178 28.9937L25.4361 32.9642C25.058 33.5691 24.395 33.9366 23.6816 33.9366H16.3199C15.6065 33.9366 14.9435 33.5691 14.5654 32.9642L12.0839 28.9937C11.8846 28.6748 11.4666 28.5744 11.1442 28.7678L8.87888 30.127C8.5481 30.3255 8.44439 30.7568 8.64888 31.0839L11.7249 36.0056H28.2766L31.3527 31.0839C31.5572 30.7567 31.4534 30.3255 31.1227 30.127L28.8573 28.7677C28.535 28.5744 28.117 28.6749 27.9178 28.9937Z" fill="#7CD6B5"/>
<path d="M28.5517 36H12V40.8276H28.5517V36Z" fill="#7CD6B5"/>
<path d="M23.4491 0.833252C21.2077 0.833252 20.0008 1.52291 20.0008 1.52291C20.0008 1.52291 18.7939 0.833252 16.5525 0.833252C14.3111 0.833252 5.80535 5.14834 8.9663 15.1483C8.9663 15.1483 20.0008 13.1895 20.0008 8.41946C20.0008 13.1895 31.0353 15.1483 31.0353 15.1483C34.1962 5.14834 25.6904 0.833252 23.4491 0.833252Z" fill="#6E4439"/>
<path d="M20.0007 1.52325V1.52291C20.0007 1.52291 18.7939 0.833252 16.5525 0.833252C14.3111 0.833252 5.8054 5.14834 8.96627 15.1483C8.96627 15.1483 10.302 14.9107 12.043 14.4009C10.0946 5.43394 17.8621 1.53015 20.0007 1.52325Z" fill="#5E342E"/>
<path d="M11.0348 27.7299H9.65548C9.27461 27.7299 8.96582 27.4211 8.96582 27.0402C8.96582 26.6594 9.27461 26.3506 9.65548 26.3506H11.0348C11.4156 26.3506 11.7244 26.6594 11.7244 27.0402C11.7244 27.4212 11.4156 27.7299 11.0348 27.7299Z" fill="#7CD6B5"/>
<path d="M11.0351 27.7297C11.0351 27.7297 12.242 29.7987 10.3455 32.5573C8.44893 29.7987 9.65583 27.7297 9.65583 27.7297" fill="#5E342E"/>
<path d="M28.965 27.7299H30.3444C30.7252 27.7299 31.034 27.4211 31.034 27.0402C31.034 26.6594 30.7252 26.3506 30.3444 26.3506H28.965C28.5842 26.3506 28.2754 26.6594 28.2754 27.0402C28.2754 27.4212 28.5842 27.7299 28.965 27.7299Z" fill="#7CD6B5"/>
<path d="M28.9654 27.7297C28.9654 27.7297 27.7585 29.7987 29.6551 32.5573C31.5516 29.7987 30.3447 27.7297 30.3447 27.7297" fill="#6E4439"/>
</g>
<defs>
<clipPath id="clip0_2141_670">
<rect y="0.833252" width="40" height="40" rx="20" fill="white"/>
</clipPath>
</defs>
</svg>
