<svg width="71" height="41" viewBox="0 0 71 41" fill="none" xmlns="http://www.w3.org/2000/svg">
<g clip-path="url(#clip0_2141_745)">
<path d="M63.7912 38.4909L62.9991 32.5506C62.83 31.2824 61.9725 30.2119 60.7718 29.7701L56.0811 28.0442C55.5179 27.8564 55.138 27.3293 55.138 26.7356V24.5113L58.1087 23.2735C59.6508 22.6311 60.6552 21.1244 60.6552 19.4539V18.7643C61.7979 18.7643 62.7242 17.838 62.7242 16.6953C62.7242 15.5526 61.7979 14.6263 60.6552 14.6263V13.247C60.6552 11.3426 59.1113 8.41943 57.2069 8.41943H44.7931C42.8887 8.41943 41.3449 11.3426 41.3449 13.247V14.6263C40.2022 14.6263 39.2759 15.5526 39.2759 16.6953C39.2759 17.838 40.2022 18.7643 41.3449 18.7643V19.4539C41.3449 21.1243 42.3493 22.631 43.8912 23.2736L46.8621 24.5114V26.7356C46.8621 27.3293 46.4822 27.8564 45.919 28.0442L41.2283 29.7701C40.0275 30.2119 39.1701 31.2824 39.001 32.5506L38.2089 38.4909C38.0436 39.7312 39.0084 40.8332 40.2597 40.8332H61.7404C62.9917 40.8332 63.9566 39.7312 63.7912 38.4909Z" fill="#F6B47B"/>
<path d="M61.3441 18.0747H59.9648C59.9648 18.0747 59.3079 19.893 59.2751 22.2126C59.2568 23.5117 59.5934 24.9682 59.9648 26.3506H61.3441C61.7155 24.9682 62.0521 23.5117 62.0338 22.2126C62.001 19.893 61.3441 18.0747 61.3441 18.0747Z" fill="#6E4439"/>
<path d="M42.0345 18.0747H40.6552C40.6552 18.0747 39.9983 19.893 39.9656 22.2126C39.9472 23.5117 40.2838 24.9682 40.6552 26.3506H42.0345C42.4059 24.9682 42.7425 23.5117 42.7242 22.2126C42.6914 19.893 42.0345 18.0747 42.0345 18.0747Z" fill="#5E342E"/>
<path d="M41.0169 13.6187H37.2079C36.72 13.6187 36.3864 14.1114 36.5676 14.5644L37.2678 16.315C37.4256 16.7093 37.8988 16.8688 38.263 16.6503L41.0169 14.998V13.6187Z" fill="#7CD6B5"/>
<path d="M41.0169 13.6187H37.2079C36.72 13.6187 36.3864 13.1259 36.5676 12.6729L37.2678 10.9223C37.4256 10.528 37.8988 10.3685 38.263 10.5871L41.0169 12.2394V13.6187Z" fill="#7CD6B5"/>
<path d="M60.9834 13.6187H64.7924C65.2803 13.6187 65.6139 14.1114 65.4327 14.5644L64.7325 16.315C64.5747 16.7093 64.1015 16.8688 63.7373 16.6503L60.9834 14.998V13.6187Z" fill="#7CD6B5"/>
<path d="M60.9834 13.6187H64.7924C65.2803 13.6187 65.6139 13.1259 65.4327 12.6729L64.7325 10.9223C64.5747 10.528 64.1015 10.3685 63.7373 10.5871L60.9834 12.2394V13.6187Z" fill="#7CD6B5"/>
<path d="M55.1379 24.5115L46.862 22.6724V26.7357C46.862 27.2322 46.5874 27.6694 46.1709 27.9132C51.9549 28.9256 55.1379 24.5115 55.1379 24.5115Z" fill="#E2A071"/>
<path d="M41.3453 14.6263C40.2027 14.6263 39.2764 15.5527 39.2764 16.6953C39.2764 17.838 40.2027 18.7643 41.3453 18.7643V19.4539C41.3453 21.1244 42.3497 22.6311 43.8917 23.2736L48.3479 25.1304C49.1883 25.4806 50.0899 25.6609 51.0004 25.6609C51.9109 25.6609 52.8124 25.4806 53.6529 25.1304L58.1093 23.2736C59.6513 22.6311 60.6557 21.1244 60.6557 19.4539V18.7643C61.7983 18.7643 62.7246 17.838 62.7246 16.6953C62.7246 15.5526 61.7983 14.6263 60.6557 14.6263V12.385C60.6557 10.1949 58.8802 8.41943 56.6902 8.41943H45.3108C43.1208 8.41943 41.3453 10.1949 41.3453 12.385V14.6263Z" fill="#FDC88E"/>
<path d="M46.1731 17.3849C45.7937 17.3849 45.4834 17.0745 45.4834 16.6952V16.0056C45.4834 15.6263 45.7937 15.3159 46.1731 15.3159C46.5524 15.3159 46.8627 15.6263 46.8627 16.0056V16.6952C46.8627 17.0745 46.5524 17.3849 46.1731 17.3849Z" fill="#623F33"/>
<path d="M55.8283 17.3849C55.449 17.3849 55.1387 17.0745 55.1387 16.6952V16.0056C55.1387 15.6263 55.449 15.3159 55.8283 15.3159C56.2076 15.3159 56.518 15.6263 56.518 16.0056V16.6952C56.518 17.0745 56.2076 17.3849 55.8283 17.3849Z" fill="#623F33"/>
<path d="M51.0001 22.2315C49.774 22.2315 48.6271 21.9298 47.8536 21.4035C47.5388 21.1894 47.4569 20.7603 47.6714 20.4455C47.8852 20.131 48.3146 20.0491 48.6294 20.2633C49.1716 20.632 50.0579 20.8523 51.0001 20.8523C51.9424 20.8523 52.8287 20.632 53.3708 20.2633C53.6863 20.0485 54.1147 20.1307 54.3288 20.4455C54.5433 20.7603 54.4615 21.1894 54.1467 21.4035C53.3732 21.9298 52.2263 22.2315 51.0001 22.2315Z" fill="#E2A071"/>
<path d="M41.3453 14.6264C40.2027 14.6264 39.2764 15.5527 39.2764 16.6953C39.2764 17.838 40.2027 18.7643 41.3453 18.7643V19.454C41.3453 21.1245 42.3497 22.6311 43.8917 23.2736L48.3477 25.1303C48.5658 25.2212 48.7884 25.2995 49.0139 25.3673C47.0446 23.9267 45.7337 22.6673 44.9656 21.8439C44.4068 21.2447 44.104 20.4541 44.104 19.6348V15.7804C46.0781 15.0914 51.6193 12.828 51.6902 9.10914L50.8281 8.24707C50.8281 8.24707 50.4546 13.1896 41.3453 14.6264Z" fill="#F6B47B"/>
<path d="M58.9178 28.9937L56.4361 32.9642C56.058 33.5691 55.395 33.9366 54.6816 33.9366H47.3199C46.6065 33.9366 45.9435 33.5691 45.5654 32.9642L43.0839 28.9937C42.8846 28.6748 42.4666 28.5744 42.1442 28.7678L39.8789 30.127C39.5481 30.3255 39.4444 30.7568 39.6489 31.0839L42.7249 36.0056H59.2766L62.3527 31.0839C62.5572 30.7567 62.4534 30.3255 62.1227 30.127L59.8573 28.7677C59.535 28.5744 59.117 28.6749 58.9178 28.9937Z" fill="#7CD6B5"/>
<path d="M59.5517 36H43V40.8276H59.5517V36Z" fill="#7CD6B5"/>
<path d="M54.4491 0.833252C52.2077 0.833252 51.0008 1.52291 51.0008 1.52291C51.0008 1.52291 49.7939 0.833252 47.5525 0.833252C45.3111 0.833252 36.8053 5.14834 39.9663 15.1483C39.9663 15.1483 51.0008 13.1895 51.0008 8.41946C51.0008 13.1895 62.0353 15.1483 62.0353 15.1483C65.1962 5.14834 56.6904 0.833252 54.4491 0.833252Z" fill="#6E4439"/>
<path d="M51.0007 1.52325V1.52291C51.0007 1.52291 49.7939 0.833252 47.5525 0.833252C45.3111 0.833252 36.8054 5.14834 39.9663 15.1483C39.9663 15.1483 41.302 14.9107 43.043 14.4009C41.0946 5.43394 48.8621 1.53015 51.0007 1.52325Z" fill="#5E342E"/>
<path d="M42.0348 27.7299H40.6555C40.2746 27.7299 39.9658 27.4211 39.9658 27.0402C39.9658 26.6594 40.2746 26.3506 40.6555 26.3506H42.0348C42.4156 26.3506 42.7244 26.6594 42.7244 27.0402C42.7244 27.4212 42.4156 27.7299 42.0348 27.7299Z" fill="#7CD6B5"/>
<path d="M42.0351 27.7297C42.0351 27.7297 43.242 29.7987 41.3455 32.5573C39.4489 29.7987 40.6558 27.7297 40.6558 27.7297" fill="#5E342E"/>
<path d="M59.965 27.7299H61.3444C61.7252 27.7299 62.034 27.4211 62.034 27.0402C62.034 26.6594 61.7252 26.3506 61.3444 26.3506H59.965C59.5842 26.3506 59.2754 26.6594 59.2754 27.0402C59.2754 27.4212 59.5842 27.7299 59.965 27.7299Z" fill="#7CD6B5"/>
<path d="M59.9654 27.7297C59.9654 27.7297 58.7585 29.7987 60.6551 32.5573C62.5516 29.7987 61.3447 27.7297 61.3447 27.7297" fill="#6E4439"/>
</g>
<g clip-path="url(#clip1_2141_745)">
<path d="M22.4701 30.1938H16.7354V36.6167H22.4701V30.1938Z" fill="#FDCC9B"/>
<path d="M16.7354 30.9504C16.7354 30.9504 19.1475 32.4866 22.4699 32.1307V30.1938H16.7354V30.9504Z" fill="#FCBC85"/>
<path d="M8.46617 23.4269C10.0116 23.4269 11.2644 21.9976 11.2644 20.2345C11.2644 18.4713 10.0116 17.042 8.46617 17.042C6.92076 17.042 5.66797 18.4713 5.66797 20.2345C5.66797 21.9976 6.92076 23.4269 8.46617 23.4269Z" fill="#FCBC85"/>
<path d="M30.7396 23.4269C32.285 23.4269 33.5378 21.9976 33.5378 20.2345C33.5378 18.4713 32.285 17.042 30.7396 17.042C29.1942 17.042 27.9414 18.4713 27.9414 20.2345C27.9414 21.9976 29.1942 23.4269 30.7396 23.4269Z" fill="#FCBC85"/>
<path d="M30.2617 14.3101C30.2617 9.60777 26.8208 6.16675 19.1366 6.16675C11.4519 6.16675 8.0113 9.60758 8.0113 14.3101C8.0113 19.0126 7.2085 31.3995 19.1366 31.3995C31.0645 31.3993 30.2617 19.0126 30.2617 14.3101Z" fill="#FDCC9B"/>
<path d="M14.1838 20.7889C14.8489 20.7889 15.3881 20.1984 15.3881 19.4699C15.3881 18.7414 14.8489 18.1509 14.1838 18.1509C13.5187 18.1509 12.9795 18.7414 12.9795 19.4699C12.9795 20.1984 13.5187 20.7889 14.1838 20.7889Z" fill="#3B2519"/>
<path d="M13.659 19.2476C13.8579 19.2476 14.0191 19.0864 14.0191 18.8875C14.0191 18.6886 13.8579 18.5273 13.659 18.5273C13.4601 18.5273 13.2988 18.6886 13.2988 18.8875C13.2988 19.0864 13.4601 19.2476 13.659 19.2476Z" fill="white"/>
<path d="M12.2572 16.2012C12.8266 16.486 13.741 15.2335 15.8342 16.3231C16.2158 16.5217 16.4434 14.6243 14.1999 14.6243C12.2572 14.6243 11.913 16.0291 12.2572 16.2012Z" fill="#D96E27"/>
<path d="M25.1701 20.7889C25.8352 20.7889 26.3744 20.1984 26.3744 19.4699C26.3744 18.7414 25.8352 18.1509 25.1701 18.1509C24.505 18.1509 23.9658 18.7414 23.9658 19.4699C23.9658 20.1984 24.505 20.7889 25.1701 20.7889Z" fill="#3B2519"/>
<path d="M24.6453 19.2476C24.8442 19.2476 25.0054 19.0864 25.0054 18.8875C25.0054 18.6886 24.8442 18.5273 24.6453 18.5273C24.4464 18.5273 24.2852 18.6886 24.2852 18.8875C24.2852 19.0864 24.4464 19.2476 24.6453 19.2476Z" fill="white"/>
<path d="M26.9478 16.2012C26.3783 16.486 25.4638 15.2335 23.3708 16.3231C22.9892 16.5217 22.7615 14.6243 25.0051 14.6243C26.9478 14.6243 27.2918 16.0291 26.9478 16.2012Z" fill="#D96E27"/>
<path d="M19.6031 24.1093C18.4131 24.1093 17.6963 23.2204 17.6963 23.6504C17.6963 24.0806 18.0404 24.8978 19.6031 24.8978C21.1658 24.8978 21.5097 24.0806 21.5097 23.6504C21.5099 23.2204 20.793 24.1093 19.6031 24.1093Z" fill="#FCBC85"/>
<path d="M19.603 28.064C19.1913 28.064 18.9434 27.7566 18.9434 27.9054C18.9434 28.0543 19.0622 28.3368 19.603 28.3368C20.1434 28.3368 20.2624 28.0543 20.2624 27.9054C20.2624 27.7566 20.0146 28.064 19.603 28.064Z" fill="#FCBC85"/>
<path d="M19.6026 26.9683C17.7163 26.9683 16.5801 26.2002 16.5801 26.3949C16.5801 26.5896 17.1256 27.3555 19.6026 27.3555C22.0795 27.3555 22.625 26.5896 22.625 26.3949C22.6252 26.2002 21.4888 26.9683 19.6026 26.9683Z" fill="#F7945E"/>
<path d="M19.6028 32.7744V40.0002H5.66797C5.66797 37.0754 13.0079 32.7744 19.6028 32.7744Z" fill="#7CD6B5"/>
<path d="M19.6025 32.7744V40.0002H33.5373C33.5373 37.0754 26.1974 32.7744 19.6025 32.7744Z" fill="#7CD6B5"/>
<path d="M16.7354 33.0246C16.7354 33.0246 17.5741 34.0648 19.6026 34.0648C21.6312 34.0648 22.4699 33.0246 22.4699 33.0246C22.4699 33.0246 19.4953 31.9415 16.7354 33.0246Z" fill="#FDCC9B"/>
<path d="M8.46606 19.47C9.454 19.47 10.3126 16.5167 10.2264 14.6244C10.1405 12.7318 11.3277 11.3556 13.6588 10.3234C13.6588 10.3234 20.3366 12.2158 25.0053 12.2158C31.1295 12.2158 29.5049 19.4129 30.6183 19.4702C31.7317 19.5276 32.936 11.2696 31.6457 6.53859C31.6457 6.53859 33.6243 5.50616 34.2263 4.21602C34.8286 2.92569 32.6718 4.12999 30.7395 4.21602C30.7395 4.21602 34.1739 1.97949 34.3291 0.431246C34.4844 -1.117 28.0201 2.06553 20.823 1.2914C13.626 0.516891 7.68062 4.53363 7.38798 10.6673C7.12988 16.0747 7.56591 19.47 8.46606 19.47Z" fill="#D96E27"/>
<path d="M16.7356 32.3155L19.6028 34.0645L16.5805 37.0754L14.335 33.5809C14.335 33.5809 15.8038 32.1357 16.7356 32.3155Z" fill="#7CD6B5"/>
<path d="M22.4698 32.3155L19.6025 34.0645L22.6251 37.0754L24.8706 33.5809C24.8706 33.5809 23.4018 32.1357 22.4698 32.3155Z" fill="#7CD6B5"/>
<path d="M19.6025 34.0649V40.0002L20.0552 34.5156L19.6025 34.0649Z" fill="#03A67A"/>
<path d="M18.9434 36.1867C19.1889 36.1867 19.3879 35.9877 19.3879 35.7423C19.3879 35.4968 19.1889 35.2979 18.9434 35.2979C18.698 35.2979 18.499 35.4968 18.499 35.7423C18.499 35.9877 18.698 36.1867 18.9434 36.1867Z" fill="#03A67A"/>
<path d="M18.9434 39.7133C19.1889 39.7133 19.3879 39.5143 19.3879 39.2689C19.3879 39.0234 19.1889 38.8245 18.9434 38.8245C18.698 38.8245 18.499 39.0234 18.499 39.2689C18.499 39.5143 18.698 39.7133 18.9434 39.7133Z" fill="#03A67A"/>
</g>
<defs>
<clipPath id="clip0_2141_745">
<rect width="40" height="40" fill="white" transform="translate(31 0.833252)"/>
</clipPath>
<clipPath id="clip1_2141_745">
<rect width="40" height="40" fill="white"/>
</clipPath>
</defs>
</svg>
